<svg width="46" height="46" viewBox="0 0 46 46" fill="none" xmlns="http://www.w3.org/2000/svg">
<path d="M13.5605 28.5057L15.2746 30.572L27.6725 20.2875L29.3866 22.3538L31.4529 20.6397L29.7388 18.5734L31.8051 16.8593L30.091 14.7929L28.0247 16.507L26.3106 14.4407L24.2443 16.1548L25.9584 18.2211L13.5605 28.5057ZM20.4639 15.8026L22.5302 14.0885L24.2443 16.1548L22.178 17.8689L20.4639 15.8026ZM20.4639 15.8026L18.3976 17.5167L16.6835 15.4504L18.7498 13.7363L20.4639 15.8026ZM29.0344 26.1342L31.1007 24.4201L29.3866 22.3538L27.3203 24.0679L29.0344 26.1342ZM29.0344 26.1342L26.968 27.8483L28.6821 29.9146L30.7484 28.2005L29.0344 26.1342Z" fill="black"/>
</svg>
